<svg width="14" height="13" fill="none" xmlns="http://www.w3.org/2000/svg"><path d="M6.52 1.303c.154-.311.23-.467.335-.517a.333.333 0 01.287 0c.104.05.181.206.335.517l1.458 2.953a.776.776 0 00.1.174c.03.031.065.057.105.075.044.02.094.028.196.043l3.26.477c.344.05.516.075.595.159.07.073.102.173.089.273-.015.114-.14.235-.388.477l-2.359 2.298a.727.727 0 00-.134.15.333.333 0 00-.04.122.726.726 0 00.02.2l.557 3.245c.059.342.088.513.033.615a.333.333 0 01-.232.168c-.114.022-.268-.06-.575-.22l-2.915-1.534a.692.692 0 00-.184-.081.334.334 0 00-.128 0 .746.746 0 00-.185.081l-2.915 1.533c-.307.162-.46.243-.574.222a.333.333 0 01-.232-.17c-.056-.1-.026-.272.032-.614l.557-3.245a.729.729 0 00.02-.2.333.333 0 00-.04-.122.729.729 0 00-.134-.15L1.106 5.934c-.249-.242-.373-.363-.388-.477-.013-.1.02-.2.088-.273.08-.084.251-.11.595-.16l3.26-.476c.102-.015.153-.022.197-.043a.333.333 0 00.103-.075c.034-.036.056-.082.102-.174L6.52 1.303z" fill="#F6CA2D"/></svg>